<svg width="29" height="45" viewBox="0 0 29 45" fill="none" xmlns="http://www.w3.org/2000/svg">
<g id="backpack.fill">
<g id="Group">
<path id="Vector" d="M9.37014 42.5579H19.5989C25.4248 42.5579 28.3044 39.6114 28.2541 33.7186C28.1871 26.9887 28.1536 22.1003 27.9862 18.434C27.5008 7.65276 24.4706 4.4887 14.4929 4.4887C4.51523 4.4887 1.46835 7.65276 0.982858 18.434C0.815448 22.1003 0.781965 26.9887 0.715001 33.7186C0.664778 39.6114 3.54424 42.5579 9.37014 42.5579ZM8.88464 35.9117C7.44491 35.9117 6.52416 34.9741 6.52416 33.568V24.9296C6.52416 23.5066 7.44491 22.569 8.88464 22.569H20.1012C21.5242 22.569 22.4449 23.5066 22.4449 24.9296V33.568C22.4449 34.9741 21.5242 35.9117 20.1012 35.9117H8.88464ZM6.52416 29.0144H22.4449V27.0221H6.52416V29.0144ZM14.4929 0.571289C11.2786 0.571289 9.01857 2.74763 9.01857 5.7108H11.3791C11.3791 4.08692 12.6514 2.93177 14.4929 2.93177C16.3176 2.93177 17.6068 4.08692 17.6068 5.7108H19.9672C19.9672 2.74763 17.6905 0.571289 14.4929 0.571289Z" fill="#262626"/>
</g>
</g>
</svg>
