<svg width="38" height="23" viewBox="0 0 38 23" fill="none" xmlns="http://www.w3.org/2000/svg">
<g id="dumbbell.fill">
<g id="Group">
<path id="Vector" d="M2.53261 19.2249C3.73273 19.2249 4.65133 18.3062 4.65133 17.1359V5.93476C4.65133 4.74946 3.73273 3.81605 2.53261 3.81605C1.34732 3.81605 0.428711 4.74946 0.428711 5.93476V17.1359C0.428711 18.3062 1.34732 19.2249 2.53261 19.2249ZM9.57032 22.4994C11.5409 22.4994 12.9188 21.1807 12.9188 19.3138V3.77159C12.9188 1.88993 11.5409 0.571289 9.57032 0.571289C7.61457 0.571289 6.23667 1.88993 6.23667 3.77159V19.3138C6.23667 21.1807 7.61457 22.4994 9.57032 22.4994ZM14.6375 14.3948H23.8383V8.67576H14.6375V14.3948ZM28.9054 22.4994C30.876 22.4994 32.254 21.1807 32.254 19.3138V3.77159C32.254 1.88993 30.876 0.571289 28.9054 0.571289C26.9498 0.571289 25.5718 1.88993 25.5718 3.77159V19.3138C25.5718 21.1807 26.9498 22.4994 28.9054 22.4994ZM35.7951 19.2249C36.9804 19.2249 37.9137 18.3062 37.9137 17.1359V5.93476C37.9137 4.74946 36.9804 3.81605 35.7951 3.81605C34.6098 3.81605 33.6911 4.74946 33.6911 5.93476V17.1359C33.6911 18.3062 34.6098 19.2249 35.7951 19.2249Z" fill="#262626"/>
</g>
</g>
</svg>
